<svg width="21" height="12" viewBox="0 0 21 12" fill="none" xmlns="http://www.w3.org/2000/svg">
<path d="M20.707 4.69471L17.707 7.69471C17.5184 7.87687 17.2658 7.97766 17.0036 7.97539C16.7414 7.97311 16.4906 7.86794 16.3052 7.68253C16.1198 7.49712 16.0146 7.24631 16.0123 6.98411C16.01 6.72192 16.1108 6.46931 16.293 6.28071L17.586 4.98771H8C7.73478 4.98771 7.48043 4.88235 7.29289 4.69482C7.10536 4.50728 7 4.25293 7 3.98771C7 3.7225 7.10536 3.46814 7.29289 3.28061C7.48043 3.09307 7.73478 2.98771 8 2.98771H17.586L16.293 1.69471C16.1108 1.50611 16.01 1.25351 16.0123 0.991311C16.0146 0.729114 16.1198 0.478301 16.3052 0.292893C16.4906 0.107485 16.7414 0.00231622 17.0036 3.78026e-05C17.2658 -0.00224062 17.5184 0.0985537 17.707 0.280712L20.707 3.28071C20.8945 3.46824 20.9998 3.72255 20.9998 3.98771C20.9998 4.25288 20.8945 4.50718 20.707 4.69471Z" fill="#474343"/>
<path d="M0.292755 7.28071L3.29276 4.28071C3.48136 4.09856 3.73396 3.99776 3.99616 4.00004C4.25835 4.00232 4.50917 4.10749 4.69457 4.2929C4.87998 4.4783 4.98515 4.72912 4.98743 4.99131C4.98971 5.25351 4.88891 5.50611 4.70676 5.69471L3.41376 6.98771L12.9998 6.98771C13.265 6.98771 13.5193 7.09307 13.7069 7.28061C13.8944 7.46814 13.9998 7.7225 13.9998 7.98771C13.9998 8.25293 13.8944 8.50728 13.7069 8.69482C13.5193 8.88236 13.265 8.98771 12.9998 8.98771L3.41376 8.98771L4.70676 10.2807C4.88891 10.4693 4.98971 10.7219 4.98743 10.9841C4.98515 11.2463 4.87998 11.4971 4.69457 11.6825C4.50917 11.8679 4.25835 11.9731 3.99616 11.9754C3.73396 11.9777 3.48136 11.8769 3.29276 11.6947L0.292755 8.69471C0.105284 8.50719 -3.05176e-05 8.25288 -3.05176e-05 7.98771C-3.05176e-05 7.72255 0.105284 7.46824 0.292755 7.28071Z" fill="#474343"/>
</svg>
