<svg width="34" height="29" viewBox="0 0 34 29" fill="none" xmlns="http://www.w3.org/2000/svg">
<path d="M0.680003 14.1705C1.05604 14.1705 1.36001 13.876 1.36001 13.5116C1.36001 9.51495 4.71582 6.26297 8.84003 6.26297H24.1283C24.6982 6.26297 25.1601 6.71062 25.1601 7.26283V10.2064C25.1601 11.0235 26.1168 11.4956 26.7988 11.015L33.3288 6.41262C33.8954 6.01333 33.8954 5.19469 33.3288 4.79539L26.7988 0.193031C26.1168 -0.287625 25.1601 0.184463 25.1601 1.00165V3.94518C25.1601 4.49739 24.6982 4.94504 24.1283 4.94504H8.84003C3.96578 4.94504 0 8.78811 0 13.5116C0 13.876 0.303961 14.1705 0.680003 14.1705Z" fill="#19211D"/>
<path d="M33.32 14.8295C32.944 14.8295 32.64 15.124 32.64 15.4884C32.64 19.4851 29.2842 22.737 25.16 22.737H8.8399V18.7936C8.8399 17.9764 7.88321 17.5044 7.20123 17.985L0.671171 22.5874C0.10463 22.9867 0.10463 23.8053 0.67117 24.2046L7.20123 28.807C7.88321 29.2876 8.8399 28.8155 8.8399 27.9984V24.055H25.16C30.0342 24.055 34 20.2119 34 15.4884C34 15.124 33.696 14.8295 33.32 14.8295Z" fill="#19211D"/>
</svg>
