<svg width="674" height="350" viewBox="0 0 674 350" fill="none" xmlns="http://www.w3.org/2000/svg">
<ellipse cx="337" cy="312.626" rx="337" ry="37.0912" fill="#48DEBA"/>
<path d="M157.174 70.7042C144.496 106.718 122.437 142.731 99.6162 165.556C104.687 172.911 113.055 189.396 115.844 197.005C121.422 190.918 127.254 184.07 132.833 176.462V306.059H161.738V131.572C171.12 114.833 179.234 97.0802 185.826 79.5808L157.174 70.7042ZM204.083 182.548C198.251 210.7 187.601 239.358 173.148 257.111C180.502 260.916 193.18 268.524 199.012 273.343C213.211 252.8 226.142 220.844 233.496 188.635L204.083 182.548ZM309.563 142.985C308.296 154.144 306.774 164.795 305.506 172.657L331.116 176.969C334.666 162.259 338.976 138.673 342.019 118.13L320.72 114.072L315.902 115.087H228.678C233.242 102.66 237.299 90.2326 240.595 77.2982L211.182 70.7042C202.561 105.449 187.348 140.448 168.077 162.006C174.923 166.571 187.094 176.462 192.419 181.788C200.786 171.136 209.154 157.694 216.254 142.985H245.666V272.328C245.666 275.625 244.399 276.64 241.102 276.64C237.553 276.64 226.903 276.64 216.254 276.386C220.818 284.502 225.382 297.943 226.649 306.82C242.877 306.82 255.048 305.552 263.923 300.733C273.051 295.661 275.586 287.291 275.586 272.835V142.985H309.563ZM284.715 189.142C296.885 215.265 307.535 250.01 310.324 272.582L339.23 262.691C335.68 239.865 324.777 206.135 311.592 180.012L284.715 189.142Z" fill="#5DE694"/>
<path d="M429.497 147.803C426.454 173.672 421.637 196.497 414.283 216.279C407.944 211.714 401.605 207.403 395.52 203.599C399.577 185.845 403.634 167.078 407.691 147.803H429.497ZM441.414 119.398L436.343 120.159H413.523C416.819 103.674 419.862 87.4428 422.397 72.4795L393.999 69.9434C391.717 85.4139 388.674 102.66 385.378 120.159H360.275V147.803H380.053C373.968 177.223 367.629 205.627 361.797 226.424L386.645 239.358L388.674 231.496C393.238 234.793 397.802 238.344 402.366 241.894C391.717 260.408 378.024 274.611 361.036 283.487C367.121 289.067 374.982 299.719 379.039 307.327C397.802 295.661 413.016 280.697 425.187 260.916C434.315 269.538 442.175 277.908 447.5 285.009L465.756 260.662C459.417 252.546 449.528 243.416 438.372 234.286C450.035 205.12 456.881 168.346 459.671 122.188L441.414 119.398ZM595.578 170.121H539.795V155.665C557.545 138.927 576.308 115.34 589.747 95.5585L569.969 80.8488L563.884 82.3705H464.742V110.268H543.599C536.499 120.92 527.625 132.079 519.257 140.702H509.875V170.121H456.374V198.526H509.875V272.582C509.875 276.132 508.608 277.147 504.297 277.147C500.24 277.4 486.801 277.147 473.87 276.64C478.18 285.009 483.252 297.943 484.773 306.313C503.283 306.566 516.975 305.552 527.117 300.733C537.006 296.168 539.795 288.052 539.795 272.835V198.526H595.578V170.121Z" fill="#5DE694"/>
<path fillRule="evenodd" clipRule="evenodd" d="M533.744 24.9184C535.328 23.0592 536.4 20.7807 536.221 18.2275C535.705 10.8711 525.465 12.4894 523.473 16.2023C521.481 19.9152 521.718 29.3331 524.292 29.9967C525.319 30.2614 527.506 29.6131 529.732 28.2714L528.335 38.1561H536.584L533.744 24.9184Z" fill="#DBFFF6"/>
<path fillRule="evenodd" clipRule="evenodd" d="M528.175 11.923C529.262 11.7447 532.19 11.6221 532.73 11.6222C533.075 11.6222 533.449 11.701 533.653 11.3842C533.821 11.1247 533.759 10.686 533.809 10.3849C533.867 10.0352 533.95 9.68997 534.033 9.34562C534.27 8.36575 534.629 7.43353 535.13 6.55829C536.072 4.91624 537.45 3.63001 539.191 2.88156C541.114 2.05515 543.289 1.86592 545.357 2.03355C547.57 2.21288 549.573 2.94337 551.662 3.6308C553.653 4.28587 555.738 4.54372 557.821 4.22382C559.919 3.90155 561.504 2.76443 563.274 1.68516C565.085 0.580249 567.156 -0.142402 569.297 0.0237181C571.296 0.178838 573.139 1.0043 574.792 2.10699C576.339 3.1387 577.615 4.37997 578.335 6.12697C579.111 8.00621 579.11 10.069 577.835 11.7298C575.988 14.1372 572.558 14.7597 569.704 14.6978C568.054 14.6621 566.433 14.3608 564.875 13.8127C562.796 13.0818 561.001 11.8429 559.056 10.8377C558.144 10.366 557.201 9.9786 556.212 9.69954C555.253 9.42864 554.308 9.30439 553.44 9.88387C552.521 10.4969 551.698 11.0991 550.647 11.4829C549.638 11.851 548.57 12.057 547.496 12.0487C545.406 12.0325 543.345 11.3812 541.315 10.945C539.66 10.5893 537.888 10.2349 536.201 10.5768C535.496 10.7195 534.468 11.014 534.213 11.7459C538.494 12.5219 540.176 17.8165 538.969 21.7033C538.317 23.8011 534.402 26.2535 532.879 25.1506C531.915 24.4519 532.5 23.5346 532.879 22.9291C533.605 21.7695 533.853 20.28 532.511 19.4726C531.352 18.7763 530.134 20.4299 530.111 20.428C529.793 20.403 527.042 18.8472 525.147 16.5769C523.277 16.6878 522.993 15.4549 523.44 14.4467C523.886 13.4384 526.673 12.1695 528.175 11.923Z" fill="#2E4136"/>
<path fillRule="evenodd" clipRule="evenodd" d="M490.004 122.601C494.409 112.853 497.594 104.365 498.872 99.8863C501.062 92.2181 502.727 85.4706 503.148 82.9507C504.152 76.9418 495.427 76.5919 494.273 79.5783C492.528 84.0982 489.481 98.9487 485.819 121.38L490.004 122.601ZM541.092 92.0088C537.051 90.4115 522.9 85.4127 516.075 83.9986C514.114 83.5923 512.213 83.2148 510.425 82.8736C505.113 81.8594 502.361 91.4429 507.477 92.1793C520.219 94.0131 538.282 95.9068 539.828 96.1193C541.995 96.4171 543.632 93.0126 541.092 92.0088Z" fill="#DBFFF6"/>
<path fillRule="evenodd" clipRule="evenodd" d="M507.164 80.2364L529.022 69.1094V66.6871H526.423C505.276 72.0756 494.47 75.5289 494.005 77.0469C494 77.0633 493.995 77.0796 493.991 77.096C493.981 77.1099 493.97 77.124 493.96 77.1381C489.769 82.9017 487.259 111.04 486.435 113.147L494.466 114.345C497.538 102.954 507.366 95.0181 507.105 81.3751C507.175 80.9749 507.193 80.5954 507.164 80.2364Z" fill="#298D63"/>
<path fillRule="evenodd" clipRule="evenodd" d="M527.206 86.8446C529.206 86.4442 531.048 86.0869 532.624 85.8105C542.803 84.025 545.772 78.576 544.017 66.687H525.261C522.197 67.5671 506.275 74.2443 498.014 77.7957C492.546 80.1462 494.27 88.6197 497.366 90.8248C497.383 90.9601 497.439 91.052 497.538 91.0931C514.194 97.9965 527.371 94.3743 531.772 95.5317L533.808 89.1092L527.206 86.8446Z" fill="#12CE52"/>
<path fillRule="evenodd" clipRule="evenodd" d="M539.711 90.9879C540.802 91.0923 541.577 91.2562 542.035 91.4796C542.592 91.7513 543.36 92.2407 544.338 92.9476C544.023 93.5939 541.19 99.4026 535.839 110.373C534.121 110.096 533.44 109.441 533.797 108.407C534.153 107.373 534.441 106.51 534.659 105.818L534.999 95.9571C535.005 95.7674 535.164 95.6188 535.354 95.6254C535.357 95.6255 535.361 95.6256 535.364 95.6258L536.881 95.7212C537.743 95.0235 538.311 94.3924 538.587 93.8277C538.81 93.3689 538.934 92.6449 538.958 91.6558L538.958 91.6558C538.967 91.2762 539.282 90.9759 539.662 90.985C539.678 90.9853 539.694 90.9863 539.711 90.9879Z" fill="#DBFFF6"/>
<path fillRule="evenodd" clipRule="evenodd" d="M492.009 120.794C492.393 121.82 492.585 122.588 492.585 123.098C492.585 123.718 492.482 124.623 492.276 125.812C491.556 125.812 485.094 125.812 472.888 125.812C472.384 124.146 472.675 123.247 473.76 123.114C474.846 122.981 475.747 122.861 476.465 122.754L485.477 118.737C485.65 118.66 485.853 118.738 485.931 118.911C485.932 118.914 485.933 118.917 485.934 118.92L486.514 120.325C487.519 120.794 488.335 121.028 488.963 121.028C489.474 121.028 490.179 120.822 491.078 120.41L491.078 120.41C491.423 120.252 491.831 120.403 491.99 120.748C491.997 120.763 492.003 120.778 492.009 120.794Z" fill="#DBFFF6"/>
<path fillRule="evenodd" clipRule="evenodd" d="M507.71 57.2743L495.254 51.8043C493.072 49.63 490.965 47.9775 488.933 46.8467C488.326 46.6532 487.288 46.5948 488.395 48.2124C489.503 49.8301 490.595 51.5815 490.152 52.1484C489.71 52.7153 488.428 52.0896 487.921 53.0115C487.584 53.6262 489.745 54.3614 494.404 55.2172L503.733 62.3694L507.71 57.2743ZM558.066 58.7809L551.022 60.1785C558.106 73.3802 561.905 80.3772 562.419 81.1693C563.575 82.9515 562.496 86.2179 562.098 87.938C564.598 88.5201 563.612 84.7562 566.777 85.5421C569.665 86.2594 572.115 88.1002 574.808 85.6175C575.139 85.3123 575.382 84.3582 574.252 83.8689C571.44 82.6498 567.284 80.367 566.61 79.4807C565.691 78.2722 562.843 71.3722 558.066 58.7809Z" fill="#DBFFF6"/>
<path fillRule="evenodd" clipRule="evenodd" d="M531.877 32.4265L528.905 31.9166C522.43 38.1969 519.788 53.2852 515.474 55.2824C511.395 57.1707 505.612 55.3434 498.738 52.8762L496.633 57.5794C502.879 64.3361 516.184 70.0444 521.577 66.7856C530.199 61.5755 532.19 42.9663 531.877 32.4265Z" fill="#1D702F"/>
<path fillRule="evenodd" clipRule="evenodd" d="M544.834 69.7807C532.916 69.7807 524.149 69.7807 518.534 69.7807C517.332 69.7807 517.558 68.0453 517.732 67.1697C519.737 57.0633 527.564 46.1692 527.564 31.7831L535.15 30.5935C541.425 40.6853 543.595 53.1105 544.834 69.7807Z" fill="white"/>
<path fillRule="evenodd" clipRule="evenodd" d="M547.458 59.5484C552.819 69.2197 557.326 76.1825 560.978 80.4369L566.491 79.3571C562.94 57.3338 552.656 41.0793 535.64 30.5935H534.271L532.636 30.5935C525.826 53.8091 523.948 69.2778 527.004 76.9994H550.678C550.304 71.3494 549.103 65.3743 547.458 59.5484H547.458Z" fill="#5DE694"/>
<path d="M150.1 291.443H159.174L181.534 282.693C181.534 282.693 197.413 276.211 196.117 288.526C194.821 300.84 192.552 317.368 192.552 317.368C192.552 317.368 185.423 314.127 181.534 315.099C177.645 316.071 180.238 295.331 180.238 295.331C180.238 295.331 148.48 310.562 145.563 308.618C142.646 306.674 141.998 293.063 141.998 293.063L150.1 291.443Z" fill="#298D63"/>
<path opacity="0.1" d="M150.1 291.443H159.174L181.534 282.693C181.534 282.693 197.413 276.211 196.117 288.526C194.821 300.84 192.552 317.368 192.552 317.368C192.552 317.368 185.423 314.127 181.534 315.099C177.645 316.071 180.238 295.331 180.238 295.331C180.238 295.331 148.48 310.562 145.563 308.618C142.646 306.674 141.998 293.063 141.998 293.063L150.1 291.443Z" fill="#5DE694"/>
<path d="M164.396 263.027L175.377 278.804L200.978 300.192C200.978 300.192 224.635 305.701 221.394 309.59C218.154 313.479 198.386 305.701 198.386 305.701C198.386 305.701 168.896 284.313 167.924 282.693C166.951 281.072 156.257 265.841 156.257 265.841L164.396 263.027Z" fill="white"/>
<path opacity="0.1" d="M164.396 263.027L175.377 278.804L200.978 300.192C200.978 300.192 224.635 305.701 221.394 309.59C218.154 313.479 198.386 305.701 198.386 305.701C198.386 305.701 168.896 284.313 167.924 282.693C166.951 281.072 156.257 265.841 156.257 265.841L164.396 263.027Z" fill="#DBFFF6"/>
<path d="M157.878 250.286L165.007 264.221C165.007 264.221 163.387 271.026 160.794 271.675C158.202 272.323 147.183 263.249 147.183 263.249L157.878 250.286Z" fill="#1CAB55"/>
<path opacity="0.1" d="M157.878 250.286L165.007 264.221C165.007 264.221 163.387 271.026 160.794 271.675C158.202 272.323 147.183 263.249 147.183 263.249L157.878 250.286Z" fill="#1AC066"/>
<path d="M244.853 284.227L246.959 292.915C246.983 293.011 246.979 293.113 246.949 293.208L237.396 323.061C237.358 323.18 237.281 323.281 237.177 323.35C237.073 323.418 236.949 323.448 236.826 323.436C236.702 323.424 236.587 323.37 236.498 323.283C236.41 323.195 236.354 323.081 236.34 322.957L235.018 311.328C235.009 311.25 235.017 311.172 235.041 311.098L243.81 284.187C243.847 284.075 243.919 283.978 244.016 283.91C244.113 283.843 244.229 283.809 244.347 283.813C244.465 283.818 244.578 283.861 244.67 283.935C244.761 284.01 244.826 284.113 244.853 284.227Z" fill="#5DE694"/>
<path d="M244.079 284.961L246.023 292.415L237.597 319.636L235.653 311.21L244.079 284.961Z" fill="white"/>
<path d="M201.626 325.469C201.951 326.441 235.329 325.145 235.653 324.821C235.936 324.415 236.175 323.981 236.366 323.525C236.671 322.877 236.95 322.229 236.95 322.229L235.653 311.735L202.599 310.562C202.599 310.562 201.772 319.455 201.604 323.525C201.562 324.552 201.562 325.275 201.626 325.469Z" fill="#5DE694"/>
<path opacity="0.1" d="M231.44 313.155L232.088 322.229H217.505V313.155H231.44Z" fill="#1AD285"/>
<path opacity="0.1" d="M212.645 316.071L212.732 316.054L212.32 319.96H204.219V316.071H212.645Z" fill="#1AD285"/>
<path opacity="0.1" d="M201.626 325.469C201.951 326.442 235.329 325.145 235.653 324.821C235.936 324.415 236.175 323.981 236.366 323.525H201.604C201.562 324.552 201.562 325.275 201.626 325.469Z" fill="#1AD285"/>
<path d="M162.738 245.749C170.792 245.749 177.321 239.22 177.321 231.166C177.321 223.112 170.792 216.583 162.738 216.583C154.684 216.583 148.155 223.112 148.155 231.166C148.155 239.22 154.684 245.749 162.738 245.749Z" fill="#DBFFF6"/>
<path d="M161.766 244.129C161.766 244.129 156.905 252.555 155.933 257.092C154.961 261.629 141.35 248.018 141.35 248.018L139.568 243.319C139.568 243.319 152.369 237.324 151.396 232.463C150.424 227.602 161.766 244.129 161.766 244.129Z" fill="#DBFFF6"/>
<path d="M164.358 269.406L177.645 286.906L209.403 310.562C209.403 310.562 232.412 315.423 227.227 318.988C222.042 322.553 207.135 315.747 207.135 315.747C207.135 315.747 175.052 298.572 168.247 291.443C161.442 284.313 148.803 272.323 148.803 272.323L164.358 269.406Z" fill="#DBFFF6"/>
<path d="M146.535 296.627L150.424 302.785L173.632 295.483C178.725 293.881 184.309 294.471 188.825 297.316C192.876 299.868 195.469 303.919 189.636 309.914C177.969 321.904 170.192 315.423 170.192 315.423C170.192 315.423 130.98 333.895 124.498 324.821C118.017 315.747 117.693 311.21 117.693 311.21C117.693 311.21 142.646 295.655 146.535 296.627Z" fill="#5DE694"/>
<path d="M195.145 318.016C195.145 318.016 205.515 324.821 193.2 328.062C180.886 331.302 171.812 326.766 171.812 326.766C171.812 326.766 161.118 326.766 161.118 321.256C161.118 315.747 164.683 315.099 164.683 315.099L175.701 316.72C175.701 316.72 188.988 313.155 195.145 318.016Z" fill="white"/>
<path d="M174.701 227.498C175.694 227.94 176.678 228.464 177.757 228.593C178.836 228.721 180.065 228.344 180.576 227.385C180.851 226.867 180.883 226.257 180.896 225.671C180.935 223.891 180.806 221.967 179.679 220.59C178.961 219.714 177.913 219.161 177.17 218.306C176.638 217.693 176.284 216.951 175.902 216.234C174.458 213.521 172.319 210.913 169.346 210.131C168.104 209.804 166.802 209.82 165.518 209.838L158.032 209.944C156.82 209.961 155.59 209.981 154.43 210.331C152.02 211.06 150.266 213.086 148.659 215.024C147.457 216.474 146.251 217.939 145.349 219.592C144.055 222.005 143.401 224.709 143.449 227.446C143.439 228.148 143.53 228.848 143.718 229.524C143.939 230.144 144.212 230.744 144.535 231.318C145.939 234.076 146.773 237.52 145.191 240.18C147.938 239.058 150.656 237.587 152.468 235.238C153.278 234.187 153.914 232.956 154.994 232.185C156.074 231.414 157.834 231.347 158.527 232.479C158.765 232.937 158.888 233.446 158.885 233.962C158.935 234.812 158.934 235.694 159.294 236.465C159.654 237.237 160.512 237.859 161.332 237.628C162.743 237.231 162.608 235.065 163.694 234.081C164.52 233.334 165.793 233.477 166.853 233.138C168.089 232.743 169.016 231.673 169.544 230.488C169.945 229.588 169.939 227.231 170.699 226.744C171.652 226.132 173.818 227.104 174.701 227.498Z" fill="#2E4136"/>
<path d="M138.41 241.782C139.066 241.607 139.757 241.608 140.412 241.787C142.492 242.345 147.156 243.824 148.155 246.073C149.452 248.99 153.989 253.527 153.989 253.527C153.989 253.527 160.146 259.684 158.85 263.897C157.553 268.11 152.692 272.971 152.692 272.971C152.692 272.971 153.989 293.063 147.507 298.248C141.026 303.433 138.433 299.868 138.433 304.729C138.433 309.59 118.341 324.821 114.453 315.423C114.453 315.423 116.397 297.924 115.749 291.766C115.11 285.698 116.045 247.836 138.41 241.782Z" fill="#138C59"/>
<path d="M148.804 249.962C148.804 249.962 168.572 264.545 165.007 270.702C165.007 270.702 153.017 276.535 150.424 276.211C147.832 275.887 137.786 264.545 135.193 263.573C132.601 262.601 131.304 245.101 148.804 249.962Z" fill="#1AC066"/>
</svg>
