<svg width="91" height="91" viewBox="0 0 91 91" fill="none" xmlns="http://www.w3.org/2000/svg">
<path d="M91 45.1039C91 51.5816 89.5605 57.5794 87.1614 63.0974C80.2039 79.1717 64.3696 90.2078 45.6562 90.2078C27.1828 90.2078 11.3485 79.1717 4.39094 63.0974C1.9918 57.5794 0.552368 51.5816 0.552368 45.1039C0.552368 38.6262 1.9918 32.6283 4.39094 27.1103C11.3485 11.036 27.1828 0 45.6562 0C64.3696 0 80.2039 11.036 87.1614 27.1103C89.5605 32.6283 91 38.6262 91 45.1039Z" fill="white"/>
<path d="M91 45.1039C91 51.5816 89.5605 57.5794 87.1614 63.0974H4.39094C1.9918 57.5794 0.552368 51.5816 0.552368 45.1039C0.552368 38.6262 1.9918 32.6283 4.39094 27.1103H87.1614C89.5605 32.6283 91 38.6262 91 45.1039Z" fill="#FDFFFE"/>
<path d="M87.1614 27.1103H4.39096C11.3485 11.036 27.1829 0 45.6563 0C64.3696 0 80.2039 11.036 87.1614 27.1103Z" fill="#F81E25"/>
<path d="M87.1614 63.0974C80.2039 79.1717 64.3696 90.2078 45.6563 90.2078C27.1829 90.2078 11.3485 79.1717 4.39096 63.0974H87.1614Z" fill="#054CA4"/>
</svg>
