<svg width="390" height="418" viewBox="0 0 390 418" fill="none" xmlns="http://www.w3.org/2000/svg">
<path fillRule="evenodd" clipRule="evenodd" d="M249.952 34.1813C285.772 46.0036 302.928 84.9521 323.121 116.79C339.311 142.316 350.671 169.452 354.736 199.394C358.776 229.156 353.072 257.635 346.212 286.874C336.754 327.187 345.426 385.443 307.285 401.638C268.453 418.127 236.268 357.467 194.524 351.283C150.711 344.792 97.298 396.902 65.7339 365.851C34.4745 335.1 84.15 281.977 79.7504 238.376C75.664 197.876 29.1932 164.344 41.4863 125.542C53.7541 86.8197 100.434 71.8964 137.663 55.581C173.431 39.9055 212.857 21.9384 249.952 34.1813Z" fill="#5DE694"/>
<path fillRule="evenodd" clipRule="evenodd" d="M71.4705 87.1963C61.5293 87.1963 53.4705 95.2552 53.4705 105.196V178.411C53.4705 182.664 54.9461 186.574 57.4134 189.654L57.167 203.489C57.0847 208.107 62.0325 211.083 66.073 208.845L88.524 196.411H210.829C220.77 196.411 228.829 188.352 228.829 178.411V105.196C228.829 95.2552 220.77 87.1963 210.829 87.1963H71.4705Z" fill="#138C59"/>
<path d="M103.94 122.941C101.265 130.539 96.6097 138.137 91.7943 142.952C92.8644 144.504 94.6301 147.981 95.2186 149.587C96.3957 148.302 97.6263 146.858 98.8034 145.253V172.594H104.903V135.782C106.883 132.251 108.595 128.506 109.986 124.814L103.94 122.941ZM113.838 146.537C112.608 152.476 110.36 158.522 107.311 162.267C108.862 163.07 111.538 164.675 112.768 165.692C115.764 161.358 118.493 154.616 120.045 147.821L113.838 146.537ZM136.096 138.19C135.829 140.544 135.508 142.791 135.24 144.45L140.644 145.36C141.393 142.256 142.303 137.281 142.945 132.947L138.451 132.091L137.434 132.305H119.028C119.991 129.683 120.847 127.061 121.543 124.332L115.336 122.941C113.517 130.271 110.307 137.655 106.241 142.203C107.685 143.166 110.253 145.253 111.377 146.376C113.143 144.129 114.908 141.293 116.407 138.19H122.613V165.478C122.613 166.173 122.346 166.387 121.65 166.387C120.901 166.387 118.654 166.387 116.407 166.334C117.37 168.046 118.333 170.882 118.6 172.754C122.025 172.754 124.593 172.487 126.465 171.47C128.392 170.4 128.927 168.634 128.927 165.585V138.19H136.096ZM130.853 147.928C133.421 153.439 135.668 160.769 136.257 165.531L142.356 163.444C141.607 158.629 139.307 151.513 136.524 146.002L130.853 147.928Z" fill="#DBFFF6"/>
<path d="M161.404 139.207C160.762 144.664 159.745 149.48 158.194 153.653C156.856 152.69 155.519 151.78 154.234 150.978C155.09 147.232 155.947 143.273 156.803 139.207H161.404ZM163.919 133.214L162.849 133.375H158.033C158.729 129.897 159.371 126.473 159.906 123.316L153.913 122.781C153.432 126.044 152.79 129.683 152.094 133.375H146.797V139.207H150.971C149.687 145.413 148.349 151.406 147.118 155.793L152.362 158.522L152.79 156.863C153.753 157.559 154.716 158.308 155.679 159.057C153.432 162.963 150.543 165.959 146.958 167.832C148.242 169.009 149.901 171.256 150.757 172.861C154.716 170.4 157.926 167.243 160.494 163.07C162.421 164.889 164.079 166.655 165.203 168.153L169.055 163.016C167.718 161.304 165.631 159.378 163.277 157.452C165.738 151.299 167.183 143.541 167.771 133.803L163.919 133.214ZM196.45 143.915H184.679V140.865C188.424 137.334 192.383 132.358 195.219 128.185L191.046 125.081L189.762 125.402H168.841V131.288H185.481C183.983 133.535 182.11 135.889 180.345 137.709H178.365V143.915H167.076V149.908H178.365V165.531C178.365 166.28 178.098 166.494 177.188 166.494C176.332 166.548 173.496 166.494 170.767 166.387C171.677 168.153 172.747 170.882 173.068 172.647C176.974 172.701 179.863 172.487 182.003 171.47C184.09 170.507 184.679 168.795 184.679 165.585V149.908H196.45V143.915Z" fill="#DBFFF6"/>
<path fillRule="evenodd" clipRule="evenodd" d="M332.112 226.692C342.053 226.692 350.112 234.75 350.112 244.692V317.906C350.112 322.16 348.636 326.069 346.169 329.15L346.415 342.985C346.498 347.603 341.55 350.578 337.509 348.34L315.058 335.906H192.754C182.812 335.906 174.754 327.847 174.754 317.906V244.692C174.754 234.75 182.812 226.692 192.754 226.692H332.112Z" fill="#25AE74"/>
<path d="M266.593 308.015V270.316H258.703V285.626H241.721V270.316H233.832V308.015H241.721V292.131H258.703V308.015H266.593Z" fill="#FCFFFF"/>
<path d="M276.129 276.22C278.349 276.22 280.1 274.444 280.1 272.302C280.1 270.133 278.349 268.383 276.129 268.383C273.908 268.383 272.157 270.133 272.157 272.302C272.157 274.444 273.908 276.22 276.129 276.22ZM272.34 308.015H279.969V280.009H272.34V308.015Z" fill="#FCFFFF"/>
<path d="M287.127 270.316L287.754 295.605H294.338L294.965 270.316H287.127ZM291.046 308.668C293.424 308.668 295.305 306.866 295.305 304.566C295.305 302.267 293.424 300.465 291.046 300.465C288.669 300.465 286.788 302.267 286.788 304.566C286.788 306.866 288.669 308.668 291.046 308.668Z" fill="#FCFFFF"/>
</svg>
