<svg width="363" height="428" viewBox="0 0 363 428" fill="none" xmlns="http://www.w3.org/2000/svg">
<rect width="24.0986" height="82.8521" rx="7" transform="matrix(0.823509 0.567304 -0.903086 0.429459 326.813 217.435)" fill="#5DE694"/>
<path fill-rule="evenodd" clip-rule="evenodd" d="M248.217 270.192L276.003 257.625C280.878 243.643 285.915 236.815 291.115 237.14C295.254 235.593 286.866 253.082 294.554 252.121C302.241 251.16 321.802 238.837 324.759 241.893C329.134 246.412 323.922 258.803 318.473 264.738C308.289 275.832 300.316 279.267 280.985 283.055C270.878 285.036 259.746 289.735 247.59 297.153L248.217 270.192Z" fill="white"/>
<path fill-rule="evenodd" clip-rule="evenodd" d="M115.09 104.695C109.146 95.3586 105.763 84.461 108.167 73.115C115.094 40.4241 160.037 54.1048 166.65 72.0161C173.263 89.9273 166.298 132.046 154.328 133.41C149.555 133.955 140.145 129.674 130.996 122.258L131.072 167.495L94.0471 162.324L115.09 104.695Z" fill="white"/>
<path fill-rule="evenodd" clip-rule="evenodd" d="M154.56 51.8256C149.716 49.5764 142.445 48.0276 139.306 47.9501C141.652 43.9849 143.004 39.3911 143.073 34.744C143.141 30.2284 141.685 26.1723 140.404 21.9561C139.813 20.0127 139.109 18.0635 137.875 16.4678C136.619 14.8422 134.908 13.646 133.039 12.9283C131.126 12.1938 129.054 11.9433 127.016 12.0829C126.114 12.1447 125.272 12.4354 124.382 12.538C123.471 12.6433 123.121 12.0331 122.56 11.3907C121.208 9.8427 119.044 8.8696 117.13 8.36224C114.983 7.79312 112.671 7.80608 110.488 8.23314C108.363 8.64893 106.257 9.51185 104.561 10.9605C103.805 11.6053 103.096 12.3603 102.582 13.2314C102.371 13.5889 102.313 13.8101 101.915 13.8962C101.547 13.976 101.137 13.9225 100.758 13.9945C97.0972 14.6903 93.7315 16.9737 91.6199 20.2142C90.388 22.1047 89.4408 25.6038 89.0065 29.6133C88.5721 33.6229 90.7222 44.5434 93.5632 48.8139C96.0991 52.6257 100.21 55.4815 104.343 57.0574C101.057 59.9006 98.605 63.6846 96.6353 67.606C94.4958 71.8658 92.9093 76.3808 91.902 81.0661C90.945 85.5177 90.2503 90.2697 90.69 94.8185C91.1015 99.0724 92.7393 102.744 95.9615 105.378C97.4375 106.584 99.07 107.564 100.721 108.481C102.349 109.386 103.984 110.272 105.734 110.896C109.046 112.077 112.992 112.505 115.998 110.157C117.082 109.311 118.295 108.227 119.153 107.128C119.461 106.733 119.65 106.472 119.407 106.01C119.116 105.456 118.585 104.989 118.176 104.53C115.841 101.916 114.62 98.6901 114.704 95.071C114.79 91.399 116.412 86.8704 120.145 85.7841C124.754 84.443 129.218 87.3444 132.781 89.9656C135.227 84.4127 139.317 79.6766 144.961 77.761C151.205 75.6417 157.948 76.2333 164.295 74.5532C165.949 74.1154 167.644 73.5929 168.981 72.417C169.54 71.9255 170.205 71.2796 170.5 70.5676C170.888 69.6323 170.375 68.7312 169.997 67.9071C167.994 63.5373 159.404 54.0748 154.56 51.8256Z" fill="#138C59"/>
<path fill-rule="evenodd" clip-rule="evenodd" d="M152.236 269.605C174.261 277.005 212.474 273.403 266.875 258.8C277.828 286.997 282.348 306.836 280.435 318.318C233.164 338.403 193.427 345.868 161.328 344.008C160.828 363.105 157.069 381.015 147.975 396.928C129.279 429.641 38.2059 390.692 6.24465 394.375C-8.35067 328.796 31.8268 305.826 35.1271 264.874C38.7413 220.027 80.259 153.868 85.5566 154.291L133.868 158.148C133.799 192.613 144.202 231.433 152.236 269.605Z" fill="#5DE694"/>
<path d="M250.402 197.187V185.994H248.088V190.539H243.107V185.994H240.793V197.187H243.107V192.471H248.088V197.187H250.402Z" fill="#DBFFF6"/>
<path d="M253.199 187.747C253.851 187.747 254.364 187.219 254.364 186.583C254.364 185.939 253.851 185.42 253.199 185.42C252.548 185.42 252.034 185.939 252.034 186.583C252.034 187.219 252.548 187.747 253.199 187.747ZM252.088 197.187H254.326V188.872H252.088V197.187Z" fill="#DBFFF6"/>
<path d="M256.425 185.994L256.609 193.503H258.54L258.724 185.994H256.425ZM257.575 197.381C258.272 197.381 258.824 196.846 258.824 196.163C258.824 195.481 258.272 194.945 257.575 194.945C256.877 194.945 256.326 195.481 256.326 196.163C256.326 196.846 256.877 197.381 257.575 197.381Z" fill="#DBFFF6"/>
<path d="M266.724 167.896V156.703H264.042L260.901 164.739H260.839L257.697 156.703H255.015V167.896H257.077V160.341H257.138L260.142 167.896H261.598L264.602 160.341H264.663V167.896H266.724Z" fill="#DBFFF6"/>
<path d="M273.813 165.352C273.606 165.988 272.977 166.399 272.157 166.399C271.016 166.399 270.272 165.585 270.272 164.398V164.258H275.935V163.568C275.935 161.039 274.426 159.402 272.035 159.402C269.606 159.402 268.073 161.124 268.073 163.777C268.073 166.438 269.59 168.075 272.119 168.075C274.15 168.075 275.621 166.981 275.866 165.352H273.813ZM272.058 161.078C273.054 161.078 273.736 161.807 273.782 162.87H270.295C270.372 161.83 271.077 161.078 272.058 161.078Z" fill="#DBFFF6"/>
<path d="M277.092 167.896H279.33V163.25C279.33 162.078 279.974 161.396 281.077 161.396C281.399 161.396 281.705 161.45 281.889 161.528V159.534C281.736 159.488 281.514 159.449 281.253 159.449C280.288 159.449 279.59 160.023 279.299 161.078H279.253V159.581H277.092V167.896Z" fill="#DBFFF6"/>
<path d="M282.863 167.896H285.1V163.149C285.1 162.055 285.721 161.303 286.778 161.303C287.797 161.303 288.319 161.954 288.319 163.025V167.896H290.556V162.544C290.556 160.62 289.514 159.426 287.69 159.426C286.441 159.426 285.545 160.015 285.108 161.062H285.062V156.703H282.863V167.896Z" fill="#DBFFF6"/>
<path d="M294.426 168.028C295.453 168.028 296.472 167.508 296.932 166.624H296.978V167.896H299.139V162.179C299.139 160.504 297.767 159.402 295.66 159.402C293.483 159.402 292.127 160.512 292.043 162.125H294.089C294.196 161.512 294.725 161.093 295.56 161.093C296.403 161.093 296.939 161.543 296.939 162.319V162.87L294.87 162.994C292.824 163.118 291.675 163.994 291.675 165.507C291.675 167.004 292.863 168.028 294.426 168.028ZM295.162 166.391C294.403 166.391 293.897 166.004 293.897 165.383C293.897 164.793 294.372 164.413 295.208 164.351L296.939 164.243V164.848C296.939 165.748 296.135 166.391 295.162 166.391Z" fill="#DBFFF6"/>
<path d="M305.468 168.028C307.537 168.028 308.802 166.415 308.802 163.738C308.802 161.055 307.53 159.449 305.461 159.449C304.288 159.449 303.376 160.038 302.924 161.023H302.878V156.703H300.641V167.896H302.847V166.469H302.893C303.346 167.439 304.265 168.028 305.468 168.028ZM304.694 161.264C305.805 161.264 306.51 162.226 306.51 163.738C306.51 165.259 305.813 166.205 304.694 166.205C303.606 166.205 302.87 165.243 302.87 163.738C302.87 162.249 303.614 161.264 304.694 161.264Z" fill="#DBFFF6"/>
<path d="M312.403 168.028C313.43 168.028 314.449 167.508 314.909 166.624H314.955V167.896H317.116V162.179C317.116 160.504 315.744 159.402 313.637 159.402C311.461 159.402 310.104 160.512 310.02 162.125H312.066C312.173 161.512 312.702 161.093 313.537 161.093C314.38 161.093 314.917 161.543 314.917 162.319V162.87L312.848 162.994C310.802 163.118 309.652 163.994 309.652 165.507C309.652 167.004 310.84 168.028 312.403 168.028ZM313.139 166.391C312.38 166.391 311.874 166.004 311.874 165.383C311.874 164.793 312.35 164.413 313.185 164.351L314.917 164.243V164.848C314.917 165.748 314.112 166.391 313.139 166.391Z" fill="#DBFFF6"/>
<path d="M218.486 141.088V129.894H208.992V141.088H211.314V131.833H216.18V141.088H218.486Z" fill="#DBFFF6"/>
<path d="M225.076 132.64C223.888 132.64 222.977 133.245 222.524 134.223H222.486V132.772H220.279V143.803H222.517V139.691H222.563C222.992 140.63 223.911 141.22 225.107 141.22C227.161 141.22 228.433 139.606 228.433 136.93C228.433 134.246 227.153 132.64 225.076 132.64ZM224.318 139.397C223.222 139.397 222.509 138.435 222.501 136.93C222.509 135.441 223.229 134.455 224.318 134.455C225.436 134.455 226.141 135.425 226.141 136.93C226.141 138.443 225.444 139.397 224.318 139.397Z" fill="#DBFFF6"/>
<path d="M231.912 141.088L235.168 135.828H235.23V141.088H237.429V132.772H235.237L231.981 137.962H231.919V132.772H229.72V141.088H231.912Z" fill="#DBFFF6"/>
<path d="M243.23 141.088C245.092 141.088 246.257 140.141 246.257 138.683C246.257 137.644 245.498 136.883 244.402 136.744V136.682C245.245 136.55 245.889 135.774 245.889 134.882C245.889 133.563 244.862 132.772 243.153 132.772H239.038V141.088H243.23ZM241.237 134.207H242.548C243.283 134.207 243.697 134.556 243.697 135.177C243.697 135.805 243.253 136.154 242.433 136.154H241.237V134.207ZM241.237 137.465H242.548C243.498 137.465 244.004 137.837 244.004 138.543C244.004 139.265 243.521 139.653 242.647 139.653H241.237V137.465Z" fill="#DBFFF6"/>
<path d="M253.023 138.543C252.824 139.179 252.195 139.591 251.368 139.591C250.234 139.591 249.483 138.776 249.483 137.589V137.45H255.146V136.759C255.146 134.23 253.636 132.594 251.253 132.594C248.824 132.594 247.283 134.316 247.283 136.969C247.283 139.629 248.801 141.266 251.329 141.266C253.36 141.266 254.831 140.172 255.077 138.543H253.023ZM251.276 134.269C252.272 134.269 252.954 134.998 252.992 136.061H249.513C249.582 135.022 250.295 134.269 251.276 134.269Z" fill="#DBFFF6"/>
<path d="M262.816 132.772H255.69V134.479H258.134V141.088H260.372V134.479H262.816V132.772Z" fill="#DBFFF6"/>
</svg>
