<svg width="423" height="149" viewBox="0 0 423 149" fill="none" xmlns="http://www.w3.org/2000/svg">
<path d="M108.28 53.728V68.848C108.28 70.36 108.652 71.524 109.396 72.34C110.14 73.156 111.232 73.564 112.672 73.564C114.112 73.564 115.216 73.156 115.984 72.34C116.752 71.524 117.136 70.36 117.136 68.848V53.728H123.292V68.812C123.292 71.068 122.812 72.976 121.852 74.536C120.892 76.096 119.596 77.272 117.964 78.064C116.356 78.856 114.556 79.252 112.564 79.252C110.572 79.252 108.784 78.868 107.2 78.1C105.64 77.308 104.404 76.132 103.492 74.572C102.58 72.988 102.124 71.068 102.124 68.812V53.728H108.28ZM150.223 79H144.067L133.771 63.412V79H127.615V53.728H133.771L144.067 69.388V53.728H150.223V79ZM166.637 79.252C164.261 79.252 162.077 78.7 160.085 77.596C158.117 76.492 156.545 74.956 155.369 72.988C154.217 70.996 153.641 68.764 153.641 66.292C153.641 63.82 154.217 61.6 155.369 59.632C156.545 57.664 158.117 56.128 160.085 55.024C162.077 53.92 164.261 53.368 166.637 53.368C169.013 53.368 171.185 53.92 173.153 55.024C175.145 56.128 176.705 57.664 177.833 59.632C178.985 61.6 179.561 63.82 179.561 66.292C179.561 68.764 178.985 70.996 177.833 72.988C176.681 74.956 175.121 76.492 173.153 77.596C171.185 78.7 169.013 79.252 166.637 79.252ZM166.637 73.636C168.653 73.636 170.261 72.964 171.461 71.62C172.685 70.276 173.297 68.5 173.297 66.292C173.297 64.06 172.685 62.284 171.461 60.964C170.261 59.62 168.653 58.948 166.637 58.948C164.597 58.948 162.965 59.608 161.741 60.928C160.541 62.248 159.941 64.036 159.941 66.292C159.941 68.524 160.541 70.312 161.741 71.656C162.965 72.976 164.597 73.636 166.637 73.636ZM198.466 63.808V68.92H182.626V63.808H198.466ZM222.049 53.728V58.66H215.353V79H209.197V58.66H202.501V53.728H222.049ZM231.294 62.26C232.014 61.156 232.914 60.292 233.994 59.668C235.074 59.02 236.274 58.696 237.594 58.696V65.212H235.902C234.366 65.212 233.214 65.548 232.446 66.22C231.678 66.868 231.294 68.02 231.294 69.676V79H225.138V58.912H231.294V62.26ZM239.313 68.92C239.313 66.856 239.697 65.044 240.465 63.484C241.257 61.924 242.325 60.724 243.669 59.884C245.013 59.044 246.513 58.624 248.169 58.624C249.585 58.624 250.821 58.912 251.877 59.488C252.957 60.064 253.785 60.82 254.361 61.756V58.912H260.517V79H254.361V76.156C253.761 77.092 252.921 77.848 251.841 78.424C250.785 79 249.549 79.288 248.133 79.288C246.501 79.288 245.013 78.868 243.669 78.028C242.325 77.164 241.257 75.952 240.465 74.392C239.697 72.808 239.313 70.984 239.313 68.92ZM254.361 68.956C254.361 67.42 253.929 66.208 253.065 65.32C252.225 64.432 251.193 63.988 249.969 63.988C248.745 63.988 247.701 64.432 246.837 65.32C245.997 66.184 245.577 67.384 245.577 68.92C245.577 70.456 245.997 71.68 246.837 72.592C247.701 73.48 248.745 73.924 249.969 73.924C251.193 73.924 252.225 73.48 253.065 72.592C253.929 71.704 254.361 70.492 254.361 68.956ZM277.21 58.696C279.562 58.696 281.434 59.464 282.826 61C284.242 62.512 284.95 64.6 284.95 67.264V79H278.83V68.092C278.83 66.748 278.482 65.704 277.786 64.96C277.09 64.216 276.154 63.844 274.978 63.844C273.802 63.844 272.866 64.216 272.17 64.96C271.474 65.704 271.126 66.748 271.126 68.092V79H264.97V58.912H271.126V61.576C271.75 60.688 272.59 59.992 273.646 59.488C274.702 58.96 275.89 58.696 277.21 58.696ZM297.4 79.288C295.648 79.288 294.088 78.988 292.72 78.388C291.352 77.788 290.272 76.972 289.48 75.94C288.688 74.884 288.244 73.708 288.148 72.412H294.232C294.304 73.108 294.628 73.672 295.204 74.104C295.78 74.536 296.488 74.752 297.328 74.752C298.096 74.752 298.684 74.608 299.092 74.32C299.524 74.008 299.74 73.612 299.74 73.132C299.74 72.556 299.44 72.136 298.84 71.872C298.24 71.584 297.268 71.272 295.924 70.936C294.484 70.6 293.284 70.252 292.324 69.892C291.364 69.508 290.536 68.92 289.84 68.128C289.144 67.312 288.796 66.22 288.796 64.852C288.796 63.7 289.108 62.656 289.732 61.72C290.38 60.76 291.316 60.004 292.54 59.452C293.788 58.9 295.264 58.624 296.968 58.624C299.488 58.624 301.468 59.248 302.908 60.496C304.372 61.744 305.212 63.4 305.428 65.464H299.74C299.644 64.768 299.332 64.216 298.804 63.808C298.3 63.4 297.628 63.196 296.788 63.196C296.068 63.196 295.516 63.34 295.132 63.628C294.748 63.892 294.556 64.264 294.556 64.744C294.556 65.32 294.856 65.752 295.456 66.04C296.08 66.328 297.04 66.616 298.336 66.904C299.824 67.288 301.036 67.672 301.972 68.056C302.908 68.416 303.724 69.016 304.42 69.856C305.14 70.672 305.512 71.776 305.536 73.168C305.536 74.344 305.2 75.4 304.528 76.336C303.88 77.248 302.932 77.968 301.684 78.496C300.46 79.024 299.032 79.288 297.4 79.288ZM308.078 68.92C308.078 66.856 308.462 65.044 309.23 63.484C310.022 61.924 311.09 60.724 312.434 59.884C313.778 59.044 315.278 58.624 316.934 58.624C318.35 58.624 319.586 58.912 320.642 59.488C321.722 60.064 322.55 60.82 323.126 61.756V58.912H329.282V79H323.126V76.156C322.526 77.092 321.686 77.848 320.606 78.424C319.55 79 318.314 79.288 316.898 79.288C315.266 79.288 313.778 78.868 312.434 78.028C311.09 77.164 310.022 75.952 309.23 74.392C308.462 72.808 308.078 70.984 308.078 68.92ZM323.126 68.956C323.126 67.42 322.694 66.208 321.83 65.32C320.99 64.432 319.958 63.988 318.734 63.988C317.51 63.988 316.466 64.432 315.602 65.32C314.762 66.184 314.342 67.384 314.342 68.92C314.342 70.456 314.762 71.68 315.602 72.592C316.466 73.48 317.51 73.924 318.734 73.924C319.958 73.924 320.99 73.48 321.83 72.592C322.694 71.704 323.126 70.492 323.126 68.956ZM339.892 52.36V79H333.736V52.36H339.892ZM343.129 68.92C343.129 66.856 343.513 65.044 344.281 63.484C345.073 61.924 346.141 60.724 347.485 59.884C348.829 59.044 350.329 58.624 351.985 58.624C353.401 58.624 354.637 58.912 355.693 59.488C356.773 60.064 357.601 60.82 358.177 61.756V58.912H364.333V79H358.177V76.156C357.577 77.092 356.737 77.848 355.657 78.424C354.601 79 353.365 79.288 351.949 79.288C350.317 79.288 348.829 78.868 347.485 78.028C346.141 77.164 345.073 75.952 344.281 74.392C343.513 72.808 343.129 70.984 343.129 68.92ZM358.177 68.956C358.177 67.42 357.745 66.208 356.881 65.32C356.041 64.432 355.009 63.988 353.785 63.988C352.561 63.988 351.517 64.432 350.653 65.32C349.813 66.184 349.393 67.384 349.393 68.92C349.393 70.456 349.813 71.68 350.653 72.592C351.517 73.48 352.561 73.924 353.785 73.924C355.009 73.924 356.041 73.48 356.881 72.592C357.745 71.704 358.177 70.492 358.177 68.956ZM379.983 73.78V79H376.851C374.619 79 372.879 78.46 371.631 77.38C370.383 76.276 369.759 74.488 369.759 72.016V64.024H367.311V58.912H369.759V54.016H375.915V58.912H379.947V64.024H375.915V72.088C375.915 72.688 376.059 73.12 376.347 73.384C376.635 73.648 377.115 73.78 377.787 73.78H379.983ZM402.348 68.632C402.348 69.208 402.312 69.808 402.24 70.432H388.308C388.404 71.68 388.8 72.64 389.496 73.312C390.216 73.96 391.092 74.284 392.124 74.284C393.66 74.284 394.728 73.636 395.328 72.34H401.88C401.544 73.66 400.932 74.848 400.044 75.904C399.18 76.96 398.088 77.788 396.768 78.388C395.448 78.988 393.972 79.288 392.34 79.288C390.372 79.288 388.62 78.868 387.084 78.028C385.548 77.188 384.348 75.988 383.484 74.428C382.62 72.868 382.188 71.044 382.188 68.956C382.188 66.868 382.608 65.044 383.448 63.484C384.312 61.924 385.512 60.724 387.048 59.884C388.584 59.044 390.348 58.624 392.34 58.624C394.284 58.624 396.012 59.032 397.524 59.848C399.036 60.664 400.212 61.828 401.052 63.34C401.916 64.852 402.348 66.616 402.348 68.632ZM396.048 67.012C396.048 65.956 395.688 65.116 394.968 64.492C394.248 63.868 393.348 63.556 392.268 63.556C391.236 63.556 390.36 63.856 389.64 64.456C388.944 65.056 388.512 65.908 388.344 67.012H396.048Z" fill="#19211D"/>
<path d="M15.7433 36.0724C15.1383 33.8145 16.4782 31.4937 18.7361 30.8887L67.7947 17.7435C70.0526 17.1385 72.3734 18.4784 72.9784 20.7362L92.4224 93.3022C93.0274 95.5601 91.6875 97.8809 89.4296 98.4859L40.3709 111.631C38.1131 112.236 35.7923 110.896 35.1873 108.638L15.7433 36.0724Z" fill="url(#paint0_radial_503_711)"/>
<path fill-rule="evenodd" clip-rule="evenodd" d="M15.2324 36.2092C14.5517 33.6691 16.0592 31.0582 18.5993 30.3776L67.6579 17.2324C70.198 16.5518 72.8089 18.0592 73.4896 20.5993L92.9336 93.1652C93.6142 95.7053 92.1068 98.3162 89.5667 98.9969L40.508 112.142C37.9679 112.823 35.357 111.315 34.6764 108.775L15.2324 36.2092ZM18.8731 31.3997C16.8975 31.929 15.7251 33.9597 16.2544 35.9354L35.6984 108.501C36.2278 110.477 38.2585 111.649 40.2341 111.12L89.2928 97.9748C91.2684 97.4454 92.4409 95.4147 91.9115 93.4391L72.4675 20.8731C71.9381 18.8975 69.9074 17.7251 67.9318 18.2544L18.8731 31.3997Z" fill="#DBFFF6"/>
<g filter="url(#filter0_d_503_711)">
<path fill-rule="evenodd" clip-rule="evenodd" d="M66.7372 58.8983L66.3084 50.8478L66.0822 46.6028L65.7527 40.4176L59.7667 41.6503L55.6583 42.4963L47.8671 44.1008L52.5846 47.8002L51.1534 49.677L48.9034 52.6276L47.1521 54.9243C44.4957 58.4078 44.036 62.9141 45.5527 66.7452C46.1459 68.2437 47.0415 69.6389 48.2263 70.8292L45.3339 74.6222L40.6163 70.9229L41.0767 79.5635L41.1086 80.1632L41.2971 83.7017L41.2987 83.7305L41.6009 89.4036L47.0913 88.2729L47.1192 88.2672L50.5437 87.562L51.1241 87.4425L59.4865 85.7204L54.769 82.021L57.8732 77.9501L60.2014 74.8969C61.7951 72.807 62.5981 70.349 62.6581 67.8896C62.7372 64.646 61.5239 61.3998 59.1273 58.992L60.5885 57.0758L62.0197 55.1989L66.7372 58.8983Z" fill="#19211D"/>
</g>
<path fill-rule="evenodd" clip-rule="evenodd" d="M85.8269 86.1077L85.6661 83.0887L85.5813 81.4968L85.4577 79.1774L83.2129 79.6397L81.6723 79.9569L78.7506 80.5586L80.5197 81.9459L79.9829 82.6497L79.1392 83.7562L78.4825 84.6174C77.4863 85.9237 77.3139 87.6136 77.8827 89.0502C78.1051 89.6122 78.441 90.1354 78.8853 90.5817L77.8006 92.0041L76.0316 90.6169L76.2042 93.8571L76.2162 94.082L76.2869 95.4089L76.2874 95.4197L76.4008 97.5471L78.4597 97.1231L78.4701 97.121L79.7543 96.8565L79.972 96.8117L83.1079 96.1659L81.3388 94.7787L82.5029 93.2521L83.376 92.1071C83.9736 91.3234 84.2747 90.4017 84.2972 89.4794C84.3269 88.263 83.8719 87.0457 82.9732 86.1428L83.5211 85.4242L84.0578 84.7204L85.8269 86.1077Z" fill="#19211D"/>
<path fill-rule="evenodd" clip-rule="evenodd" d="M33.0611 38.7383L32.9003 35.7193L32.8155 34.1275L32.6919 31.808L30.4472 32.2703L28.9066 32.5875L25.9848 33.1892L27.7539 34.5765L27.2172 35.2803L26.3735 36.3868L25.7167 37.248C24.7206 38.5543 24.5482 40.2442 25.1169 41.6809C25.3394 42.2428 25.6752 42.766 26.1195 43.2124L25.0349 44.6348L23.2658 43.2475L23.4384 46.4877L23.4504 46.7126L23.5211 48.0395L23.5217 48.0503L23.635 50.1777L25.6939 49.7538L25.7044 49.7516L26.9886 49.4872L27.2062 49.4423L30.3421 48.7966L28.573 47.4093L29.7371 45.8827L30.6102 44.7378C31.2078 43.954 31.509 43.0323 31.5315 42.11C31.5611 40.8937 31.1062 39.6763 30.2074 38.7734L30.7554 38.0548L31.2921 37.351L33.0611 38.7383Z" fill="#19211D"/>
<defs>
<filter id="filter0_d_503_711" x="36.6163" y="40.4176" width="34.1208" height="56.986" filterUnits="userSpaceOnUse" color-interpolation-filters="sRGB">
<feFlood flood-opacity="0" result="BackgroundImageFix"/>
<feColorMatrix in="SourceAlpha" type="matrix" values="0 0 0 0 0 0 0 0 0 0 0 0 0 0 0 0 0 0 127 0" result="hardAlpha"/>
<feOffset dy="4"/>
<feGaussianBlur stdDeviation="2"/>
<feComposite in2="hardAlpha" operator="out"/>
<feColorMatrix type="matrix" values="0 0 0 0 0 0 0 0 0 0 0 0 0 0 0 0 0 0 0.25 0"/>
<feBlend mode="normal" in2="BackgroundImageFix" result="effect1_dropShadow_503_711"/>
<feBlend mode="normal" in="SourceGraphic" in2="effect1_dropShadow_503_711" result="shape"/>
</filter>
<radialGradient id="paint0_radial_503_711" cx="0" cy="0" r="1" gradientUnits="userSpaceOnUse" gradientTransform="translate(54.0828 64.6873) rotate(75) scale(41.7954 29.6271)">
<stop stop-color="#00B574"/>
<stop offset="1" stop-color="#8BFFA5"/>
</radialGradient>
</defs>
</svg>
