<svg width="91" height="91" viewBox="0 0 91 91" fill="none" xmlns="http://www.w3.org/2000/svg">
<path d="M90.4477 45.3438C90.4477 48.4627 89.9679 51.3417 89.4881 54.2207C88.8483 57.4195 87.8886 60.5384 86.6091 63.5773C86.4491 63.8972 86.2892 64.2171 86.1292 64.5369C84.4498 68.3756 82.0507 71.9743 79.4116 75.0932C75.8129 79.1717 71.2545 82.7705 66.2163 85.4095C59.9786 88.7683 52.7812 90.6876 45.1039 90.6876C37.6666 90.6876 30.4691 88.7683 24.2313 85.4095C19.1931 82.7705 14.6348 79.1717 11.036 75.0932C8.39698 71.9743 5.99787 68.3756 4.31847 64.5369C4.15852 64.2171 3.99855 63.8972 3.83861 63.5773C2.55906 60.5384 1.59941 57.4195 0.959643 54.2207C0.639757 52.4613 0.399835 50.7019 0.239892 48.9425C0.0799495 47.8229 0 46.6233 0 45.3438C0 44.864 0 44.3042 0 43.6644C0.239914 40.0657 0.719736 36.7069 1.67939 33.3481C2.31916 31.2688 3.03889 29.2695 3.83861 27.3502C4.47838 25.7508 5.27809 24.2313 6.23775 22.7919C8.39698 18.9532 11.276 15.3545 14.3949 12.4756C19.673 7.43737 26.1507 3.8386 33.1082 1.91929C36.9468 0.799685 40.9454 0.239929 45.1039 0.239929C49.4224 0.239929 53.5009 0.799685 57.3395 1.91929C64.297 3.8386 70.7747 7.43737 76.0528 12.4756C79.1717 15.3545 82.0507 18.9532 84.2099 22.7919C85.1696 24.2313 85.9693 25.7508 86.6091 27.3502C87.4088 29.2695 88.1285 31.2688 88.7683 33.3481C89.728 36.7069 90.2078 40.0657 90.4477 43.6644C90.4477 44.3042 90.4477 44.864 90.4477 45.3438Z" fill="white"/>
<path d="M66.2163 85.4095C59.9786 88.7683 52.7812 90.6876 45.1039 90.6876C37.6666 90.6876 30.4691 88.7683 24.2313 85.4095H66.2163Z" fill="#F81E25"/>
<path d="M79.4116 75.0931C75.8129 79.1717 71.2545 82.7704 66.2163 85.4095H24.2313C19.1931 82.7704 14.6348 79.1717 11.036 75.0931H79.4116Z" fill="#FDFFFE"/>
<path d="M86.1292 64.5369C84.4498 68.3756 82.0507 71.9743 79.4116 75.0931H11.036C8.39698 71.9743 5.99787 68.3756 4.31847 64.5369H86.1292Z" fill="#F81E25"/>
<path d="M89.4881 54.2206C88.8483 57.4195 87.8886 60.5384 86.6091 63.5773C86.4491 63.8972 86.2892 64.217 86.1292 64.5369H4.31848C4.15854 64.217 3.99856 63.8972 3.83862 63.5773C2.55908 60.5384 1.59943 57.4195 0.959656 54.2206H89.4881Z" fill="#FDFFFE"/>
<path d="M90.4477 45.3438C90.4477 48.4627 89.9679 51.3417 89.4881 54.2206H0.959643C0.639757 52.4613 0.399835 50.7019 0.239892 48.9425C0.0799495 47.8229 0 46.6233 0 45.3438C0 44.864 0 44.3042 0 43.6644H90.4477C90.4477 44.3042 90.4477 44.864 90.4477 45.3438Z" fill="#F81E25"/>
<path d="M90.4477 43.6644H0C0.239914 40.0657 0.719736 36.7069 1.67939 33.3481H88.7683C89.728 36.7069 90.2078 40.0657 90.4477 43.6644Z" fill="#FDFFFE"/>
<path d="M88.7683 33.3481H1.67938C2.31915 31.2688 3.03888 29.2695 3.8386 27.3502C4.47837 25.7508 5.27808 24.2313 6.23774 22.7918H84.2099C85.1696 24.2313 85.9693 25.7508 86.609 27.3502C87.4088 29.2695 88.1285 31.2688 88.7683 33.3481Z" fill="#F81E25"/>
<path d="M84.2099 22.7918H6.23775C8.39698 18.9532 11.276 15.3545 14.3949 12.4756H76.0528C79.1717 15.3545 82.0507 18.9532 84.2099 22.7918Z" fill="#FDFFFE"/>
<path d="M76.0528 12.4756H14.3949C19.673 7.43737 26.1507 3.8386 33.1082 1.91928H57.3395C64.297 3.8386 70.7747 7.43737 76.0528 12.4756Z" fill="#F81E25"/>
<path d="M57.3395 1.91929H33.1082C36.9468 0.799685 40.9454 0.239929 45.1039 0.239929C49.4224 0.239929 53.5009 0.799685 57.3395 1.91929Z" fill="#FDFFFE"/>
<path d="M45.1039 0.239929V48.9425H0.239892C0.0799495 47.8229 0 46.6233 0 45.3438C0 44.864 0 44.3042 0 43.6644C0.239914 40.0657 0.719736 36.7069 1.67939 33.3481C2.31916 31.2688 3.03889 29.2695 3.83861 27.3502C4.47838 25.7508 5.27809 24.2313 6.23775 22.7919C8.39698 18.9532 11.276 15.3545 14.3949 12.4756C19.673 7.43737 26.1507 3.8386 33.1082 1.91929C36.9468 0.799685 40.9454 0.239929 45.1039 0.239929Z" fill="#054CA4"/>
<path d="M37.1867 37.1867L38.6262 39.8258L41.2653 40.3056L39.3459 42.2249L39.8258 45.1039L37.1867 43.6644L34.7876 45.1039L35.2674 42.2249L33.1082 40.3056L35.9871 39.8258L37.1867 37.1867Z" fill="#FDFFFE"/>
<path d="M22.5519 37.1867L23.9914 39.8258L26.6305 40.3056L24.7112 42.2249L25.191 45.1039L22.5519 43.6644L20.1528 45.1039L20.6326 42.2249L18.4734 40.3056L21.3524 39.8258L22.5519 37.1867Z" fill="#FDFFFE"/>
<path d="M37.1867 25.191L38.6262 27.5901L41.2653 28.07L39.3459 29.9893L39.8258 32.8683L37.1867 31.6687L34.7876 32.8683L35.2674 29.9893L33.1082 28.07L35.9871 27.5901L37.1867 25.191Z" fill="#FDFFFE"/>
<path d="M22.5519 25.191L23.9914 27.5901L26.6305 28.07L24.7112 29.9893L25.191 32.8683L22.5519 31.6687L20.1528 32.8683L20.6326 29.9893L18.4734 28.07L21.3524 27.5901L22.5519 25.191Z" fill="#FDFFFE"/>
<path d="M37.1867 12.9554L38.6262 15.5944L41.2653 15.8344L39.3459 17.9936L39.8258 20.8726L37.1867 19.4331L34.7876 20.8726L35.2674 17.9936L33.1082 15.8344L35.9871 15.5944L37.1867 12.9554Z" fill="#FDFFFE"/>
<path d="M22.5519 12.9554L23.9914 15.5944L26.6305 15.8344L24.7112 17.9936L25.191 20.8726L22.5519 19.4331L20.1528 20.8726L20.6326 17.9936L18.4734 15.8344L21.3524 15.5944L22.5519 12.9554Z" fill="#FDFFFE"/>
<path d="M7.91717 37.1867L9.35663 39.8258L12.2356 40.3056L10.0764 42.2249L10.5562 45.1039L7.91717 43.6644L5.51802 45.1039L5.99784 42.2249L3.83859 40.3056L6.71759 39.8258L7.91717 37.1867Z" fill="#FDFFFE"/>
</svg>
