<svg width="81" height="98" viewBox="0 0 81 98" fill="none" xmlns="http://www.w3.org/2000/svg">
<path d="M1.74339 20.0723C1.13839 17.8144 2.47831 15.4936 4.73617 14.8886L53.7949 1.7434C56.0527 1.1384 58.3735 2.47832 58.9785 4.73618L78.4225 77.3022C79.0275 79.56 77.6876 81.8808 75.4297 82.4858L26.371 95.6311C24.1132 96.2361 21.7924 94.8961 21.1874 92.6383L1.74339 20.0723Z" fill="url(#paint0_radial_503_579)"/>
<path fillRule="evenodd" clipRule="evenodd" d="M1.23237 20.2092C0.551749 17.6691 2.05916 15.0582 4.59925 14.3776L53.6579 1.23238C56.198 0.551766 58.8089 2.05917 59.4896 4.59927L78.9336 77.1652C79.6142 79.7053 78.1068 82.3162 75.5667 82.9969L26.508 96.1421C23.9679 96.8227 21.357 95.3153 20.6764 92.7752L1.23237 20.2092ZM4.87311 15.3997C2.89748 15.929 1.72505 17.9597 2.25442 19.9354L21.6984 92.5014C22.2278 94.477 24.2585 95.6494 26.2341 95.12L75.2928 81.9748C77.2684 81.4454 78.4409 79.4147 77.9115 77.4391L58.4675 4.87313C57.9381 2.8975 55.9074 1.72507 53.9318 2.25444L4.87311 15.3997Z" fill="#DBFFF6"/>
<g filter="url(#filter0_d_503_579)">
<path fillRule="evenodd" clipRule="evenodd" d="M52.7371 42.8982L52.3082 34.8477L52.0821 30.6027L51.7526 24.4175L45.7666 25.6502L41.6582 26.4963L33.8669 28.1007L38.5845 31.8001L37.1533 33.677L34.9033 36.6276L33.152 38.9242C30.4956 42.4078 30.0359 46.914 31.5525 50.7451C32.1458 52.2436 33.0414 53.6388 34.2261 54.8291L31.3337 58.6222L26.6162 54.9228L27.0765 63.5635L27.1085 64.1631L27.297 67.7016L27.2985 67.7304L27.6008 73.4035L33.0912 72.2729L33.119 72.2671L36.5436 71.5619L37.124 71.4424L45.4864 69.7203L40.7688 66.0209L43.8731 61.95L46.2013 58.8968C47.795 56.8069 48.598 54.349 48.658 51.8895C48.7371 48.6459 47.5238 45.3997 45.1272 42.9919L46.5884 41.0758L48.0196 39.1989L52.7371 42.8982Z" fill="#19211D"/>
</g>
<path fillRule="evenodd" clipRule="evenodd" d="M71.8269 70.1077L71.6661 67.0887L71.5813 65.4968L71.4577 63.1774L69.2129 63.6397L67.6723 63.9569L64.7506 64.5586L66.5197 65.9459L65.9829 66.6497L65.1392 67.7562L64.4825 68.6174C63.4863 69.9237 63.3139 71.6136 63.8827 73.0502C64.1051 73.6122 64.441 74.1354 64.8853 74.5817L63.8006 76.0041L62.0316 74.6169L62.2042 77.8571L62.2162 78.082L62.2869 79.4089L62.2874 79.4197L62.4008 81.5471L64.4597 81.1231L64.4701 81.121L65.7543 80.8565L65.972 80.8117L69.1079 80.1659L67.3388 78.7787L68.5029 77.2521L69.376 76.1071C69.9736 75.3234 70.2747 74.4017 70.2972 73.4794C70.3269 72.263 69.8719 71.0457 68.9732 70.1428L69.5211 69.4242L70.0578 68.7204L71.8269 70.1077Z" fill="#19211D"/>
<path fillRule="evenodd" clipRule="evenodd" d="M19.061 22.7383L18.9002 19.7193L18.8154 18.1275L18.6918 15.808L16.4471 16.2703L14.9064 16.5875L11.9847 17.1892L13.7538 18.5765L13.2171 19.2803L12.3733 20.3868L11.7166 21.248C10.7205 22.5543 10.5481 24.2442 11.1168 25.6809C11.3393 26.2428 11.6751 26.766 12.1194 27.2124L11.0348 28.6348L9.26568 27.2475L9.43831 30.4877L9.45029 30.7126L9.52098 32.0395L9.52156 32.0503L9.63489 34.1777L11.6938 33.7538L11.7042 33.7516L12.9884 33.4872L13.2061 33.4423L16.342 32.7966L14.5729 31.4093L15.737 29.8827L16.6101 28.7378C17.2077 27.954 17.5089 27.0323 17.5314 26.11C17.561 24.8937 17.106 23.6763 16.2073 22.7734L16.7552 22.0548L17.2919 21.351L19.061 22.7383Z" fill="#19211D"/>
<defs>
<filter id="filter0_d_503_579" x="22.6162" y="24.4175" width="34.1208" height="56.986" filterUnits="userSpaceOnUse" color-interpolation-filters="sRGB">
<feFlood flood-opacity="0" result="BackgroundImageFix"/>
<feColorMatrix in="SourceAlpha" type="matrix" values="0 0 0 0 0 0 0 0 0 0 0 0 0 0 0 0 0 0 127 0" result="hardAlpha"/>
<feOffset dy="4"/>
<feGaussianBlur stdDeviation="2"/>
<feComposite in2="hardAlpha" operator="out"/>
<feColorMatrix type="matrix" values="0 0 0 0 0 0 0 0 0 0 0 0 0 0 0 0 0 0 0.25 0"/>
<feBlend mode="normal" in2="BackgroundImageFix" result="effect1_dropShadow_503_579"/>
<feBlend mode="normal" in="SourceGraphic" in2="effect1_dropShadow_503_579" result="shape"/>
</filter>
<radialGradient id="paint0_radial_503_579" cx="0" cy="0" r="1" gradientUnits="userSpaceOnUse" gradientTransform="translate(40.083 48.6872) rotate(75) scale(41.7954 29.6271)">
<stop stop-color="#00B574"/>
<stop offset="1" stop-color="#8BFFA5"/>
</radialGradient>
</defs>
</svg>
